<?xml version="1.0" encoding="UTF-8"?><svg id="Warstwa_1" xmlns="http://www.w3.org/2000/svg" viewBox="0 0 92.29 69.7"><defs><style>.cls-1{fill:#26900b;font-family:Montserrat-Black, Montserrat;font-size:11.35px;font-weight:800;}.cls-2{fill:none;stroke:#26900b;stroke-miterlimit:10;stroke-width:2.13px;}</style></defs><rect class="cls-2" x="1.07" y="1.07" width="90.16" height="67.57" rx="17.96" ry="17.96"/><path class="cls-2" d="m43.89,28.87s-7.18,2.26-8.6,8.95c-1.42,6.69-.94,8.51-.94,8.51,0,0-1.69.22-1.43,2.1s4.69,1.4,4.69,1.4c0,0,4.68,1.16,8.52,1.16s8.52-1.16,8.52-1.16c0,0,4.66.33,4.75-1.5s-1.49-2-1.49-2c0,0,.69-3.95-1.02-8.43s-4.77-7.18-8.79-9.03h-4.21Z"/><path class="cls-2" d="m44.17,25.69s-5-3.45-2.77-5.94,4.51.79,4.51.79c0,0,2.5-3.07,4.31-1.24,2.68,2.71-2.48,6.39-2.48,6.39h-3.57Z"/><text class="cls-1" transform="translate(42.47 42.95)"><tspan x="0" y="0">$</tspan></text></svg>