<?xml version="1.0" encoding="UTF-8"?><svg id="Warstwa_1" xmlns="http://www.w3.org/2000/svg" viewBox="0 0 92.29 69.7"><defs><style>.cls-1{fill:#26900b;}.cls-2{fill:none;stroke:#26900b;stroke-miterlimit:10;stroke-width:2.13px;}</style></defs><rect class="cls-2" x="1.07" y="1.07" width="90.16" height="67.57" rx="17.96" ry="17.96"/><g id="kasa"><path class="cls-1" d="m21.65,49c-1.76,0-3.2-1.44-3.2-3.2v-8.63c0-3.65,2.97-6.61,6.61-6.61.57,0,1.03.46,1.03,1.03s-.46,1.03-1.03,1.03c-2.51,0-4.55,2.04-4.55,4.55v8.63c0,.62.51,1.13,1.13,1.13s1.13-.51,1.13-1.13v-5.4c0-.57.46-1.03,1.03-1.03s1.03.46,1.03,1.03v5.4c0,1.76-1.44,3.2-3.2,3.2Z"/><path class="cls-1" d="m37.61,33.59c-.2,0-.4-.06-.58-.18-.75-.51-1.63-.78-2.55-.78-.57,0-1.03-.46-1.03-1.03s.46-1.03,1.03-1.03c1.33,0,2.61.39,3.71,1.14.47.32.6.96.28,1.44-.2.3-.53.45-.86.45Z"/><path class="cls-1" d="m29.77,29.48c-3.17,0-5.75-2.58-5.75-5.75s2.58-5.75,5.75-5.75,5.75,2.58,5.75,5.75-2.58,5.75-5.75,5.75Zm0-9.43c-2.03,0-3.68,1.65-3.68,3.68s1.65,3.68,3.68,3.68,3.68-1.65,3.68-3.68-1.65-3.68-3.68-3.68Z"/><path class="cls-1" d="m32.17,49h-10.52c-.57,0-1.03-.46-1.03-1.03s.46-1.03,1.03-1.03h10.52c.57,0,1.03.46,1.03,1.03s-.46,1.03-1.03,1.03Z"/><path class="cls-1" d="m29.77,35.8c-.2,0-.4-.06-.58-.18l-4.71-3.17c-.47-.32-.6-.96-.28-1.43.32-.47.96-.6,1.43-.28l4.14,2.78,4.14-2.78c.47-.32,1.12-.19,1.43.28.32.47.19,1.12-.28,1.43l-4.71,3.17c-.17.12-.38.18-.58.18Z"/><path class="cls-1" d="m38.06,51.9c-1.76,0-3.2-1.44-3.2-3.2v-8.63c0-3.65,2.97-6.61,6.61-6.61.57,0,1.03.46,1.03,1.03s-.46,1.03-1.03,1.03c-2.51,0-4.55,2.04-4.55,4.55v8.63c0,.62.51,1.13,1.13,1.13s1.13-.51,1.13-1.13v-5.4c0-.57.46-1.03,1.03-1.03s1.03.46,1.03,1.03v5.4c0,1.76-1.44,3.2-3.2,3.2Z"/><path class="cls-1" d="m54.31,51.9c-1.76,0-3.2-1.44-3.2-3.2v-5.4c0-.57.46-1.03,1.03-1.03s1.03.46,1.03,1.03v5.4c0,.62.51,1.13,1.13,1.13s1.13-.51,1.13-1.13v-8.63c0-2.51-2.04-4.55-4.55-4.55-.57,0-1.03-.46-1.03-1.03s.46-1.03,1.03-1.03c3.65,0,6.61,2.97,6.61,6.61v8.63c0,1.76-1.44,3.2-3.2,3.2Z"/><path class="cls-1" d="m46.19,32.37c-3.17,0-5.75-2.58-5.75-5.75s2.58-5.75,5.75-5.75,5.75,2.58,5.75,5.75-2.58,5.75-5.75,5.75Zm0-9.43c-2.03,0-3.68,1.65-3.68,3.68s1.65,3.68,3.68,3.68,3.68-1.65,3.68-3.68-1.65-3.68-3.68-3.68Z"/><path class="cls-1" d="m54.31,51.9h-16.25c-.57,0-1.03-.46-1.03-1.03s.46-1.03,1.03-1.03h16.25c.57,0,1.03.46,1.03,1.03s-.46,1.03-1.03,1.03Z"/><path class="cls-1" d="m46.19,38.69c-.2,0-.4-.06-.58-.18l-4.71-3.17c-.47-.32-.6-.96-.28-1.43.32-.47.96-.6,1.43-.28l4.14,2.78,4.14-2.78c.47-.32,1.12-.19,1.43.28.32.47.19,1.12-.28,1.43l-4.71,3.17c-.17.12-.38.18-.58.18Z"/><path class="cls-1" d="m70.64,48.84c-1.76,0-3.2-1.44-3.2-3.2v-5.4c0-.57.46-1.03,1.03-1.03s1.03.46,1.03,1.03v5.4c0,.62.51,1.13,1.13,1.13s1.13-.51,1.13-1.13v-8.63c0-2.51-2.04-4.55-4.55-4.55-.57,0-1.03-.46-1.03-1.03s.46-1.03,1.03-1.03c3.65,0,6.61,2.97,6.61,6.61v8.63c0,1.76-1.44,3.2-3.2,3.2Z"/><path class="cls-1" d="m54.66,33.43c-.33,0-.65-.16-.85-.45-.32-.47-.2-1.11.27-1.44,1.1-.75,2.39-1.15,3.73-1.15.57,0,1.03.46,1.03,1.03s-.46,1.03-1.03,1.03c-.92,0-1.81.27-2.56.79-.18.12-.38.18-.58.18Z"/><path class="cls-1" d="m62.52,29.31c-3.17,0-5.75-2.58-5.75-5.75s2.58-5.75,5.75-5.75,5.75,2.58,5.75,5.75-2.58,5.75-5.75,5.75Zm0-9.43c-2.03,0-3.68,1.65-3.68,3.68s1.65,3.68,3.68,3.68,3.68-1.65,3.68-3.68-1.65-3.68-3.68-3.68Z"/><path class="cls-1" d="m70.64,48.84h-10.44c-.57,0-1.03-.46-1.03-1.03s.46-1.03,1.03-1.03h10.44c.57,0,1.03.46,1.03,1.03s-.46,1.03-1.03,1.03Z"/><path class="cls-1" d="m62.52,35.63c-.2,0-.4-.06-.58-.18l-4.71-3.17c-.47-.32-.6-.96-.28-1.43.32-.47.96-.6,1.43-.28l4.14,2.78,4.14-2.78c.47-.32,1.12-.19,1.43.28.32.47.19,1.12-.28,1.43l-4.71,3.17c-.17.12-.38.18-.58.18Z"/></g></svg>