<svg width="20" height="19" viewBox="0 0 20 19" fill="none" xmlns="http://www.w3.org/2000/svg">
<g clip-path="url(#clip0_84_213)">
<path d="M0.13003 10.3648C0.214552 11.1026 0.854019 11.6361 1.5669 11.6361L6.27452 11.6361C6.53001 11.6361 6.7092 11.8993 6.62419 12.1499C6.26582 13.2068 5.97362 14.2994 5.87171 15.4191C5.77656 16.4639 5.85046 17.8515 6.86085 18.4126C7.29844 18.6557 7.99828 18.8087 8.4687 18.5988C8.90193 18.4051 8.75414 17.7146 8.75414 17.3341C8.75414 16.7584 8.96955 16.2113 9.1357 15.6708C9.65732 14.9108 10.12 14.1096 10.6436 13.3517C11.0976 12.6949 11.6453 11.8072 12.4576 11.6245C12.8426 11.5379 13.1362 11.2113 13.1362 10.7885L13.1362 1.55C13.1362 1.07944 12.7701 0.69796 12.3185 0.69796L4.00402 0.697959C3.28776 0.697959 2.64926 1.23797 2.56957 1.97979C2.5063 2.56409 2.77773 3.08648 3.20807 3.37083C3.21145 3.37285 3.21 3.37788 3.20614 3.37788L3.1902 3.37788C2.47442 3.37788 1.8364 3.91789 1.75623 4.6587C1.69296 5.243 1.96439 5.7659 2.39473 6.05025C2.39811 6.05226 2.39666 6.05729 2.3928 6.05729L2.37686 6.05729C1.65915 6.05729 1.02016 6.60032 0.942405 7.34366C0.881066 7.93047 1.15685 8.45488 1.5925 8.73721L1.51136 8.73721C0.686908 8.73721 0.0300511 9.48457 0.130511 10.3648L0.13003 10.3648Z" fill="#26910B"/>
<path d="M14.7023 11.4992L18.4208 11.4992C18.807 11.4992 19.1201 11.1729 19.1201 10.7704L19.1201 1.42669C19.1201 1.02422 18.807 0.697952 18.4208 0.697952L14.7023 0.697952C14.316 0.697952 14.0029 1.02422 14.0029 1.42669L14.0029 10.7704C14.0029 11.1729 14.316 11.4992 14.7023 11.4992Z" fill="#26910B"/>
</g>
<defs>
<clipPath id="clip0_84_213">
<rect width="19" height="18" fill="white" transform="translate(19.1201 18.698) rotate(-180)"/>
</clipPath>
</defs>
</svg>
