<svg width="40" height="40" viewBox="0 0 40 40" fill="none" xmlns="http://www.w3.org/2000/svg">
<g clip-path="url(#clip0_131_482)">
<path d="M34.142 34.1421C41.9525 26.3316 41.9525 13.6684 34.142 5.85786C26.3315 -1.95262 13.6682 -1.95262 5.85771 5.85786C-1.95277 13.6683 -1.95277 26.3317 5.85771 34.1421C13.6682 41.9526 26.3315 41.9526 34.142 34.1421Z" fill="white"/>
<path d="M19.4171 14.6174C20.1068 14.6174 20.7043 14.3693 21.2101 13.8728C21.7066 13.3764 21.955 12.7834 21.955 12.0937C21.955 11.3582 21.7066 10.7513 21.2101 10.2732C20.7043 9.79515 20.1068 9.55611 19.4171 9.55611C18.7274 9.55611 18.1251 9.80419 17.638 10.301C17.1415 10.7975 16.8931 11.3953 16.8931 12.094C16.8931 12.7928 17.1415 13.3857 17.638 13.8732C18.1344 14.3696 18.7274 14.6177 19.4171 14.6177V14.6174Z" fill="black"/>
<path d="M24.8271 26.7288H23.156C23.156 26.7288 22.3427 26.7408 22.3146 25.9862C22.2346 24.9923 22.1698 24.1761 22.1614 23.9409L22.0649 21.5136C22.0556 21.3665 22.0511 21.1736 22.0511 20.9343C22.0511 20.401 22.0462 19.9826 22.0372 19.6793C22.0278 19.569 22.0233 19.4448 22.0233 19.307L22.0646 18.2725V15.8452C19.6738 16.9763 17.5547 17.6934 15.7065 17.9966L15.3342 19.7206C15.6652 19.7851 15.9962 19.8171 16.3272 19.8171C16.7685 19.8171 17.1824 19.739 17.5685 19.5826L17.6237 23.0444C17.6237 23.8915 17.6463 24.9661 17.6685 26.0426C17.686 26.7411 16.9872 26.7291 16.9872 26.7291H15.1722V30.4423H17.6614C17.6614 30.4423 17.6614 30.4436 17.6614 30.4445C17.6672 30.4439 17.6734 30.4433 17.6792 30.4423H24.8271V26.7291V26.7288Z" fill="black"/>
</g>
<defs>
<clipPath id="clip0_131_482">
<rect width="40" height="40" fill="white"/>
</clipPath>
</defs>
</svg>
