<?xml version="1.0" encoding="UTF-8"?><svg id="Warstwa_1" xmlns="http://www.w3.org/2000/svg" viewBox="0 0 846.58 189.01"><defs><style>.cls-1{fill:#fff;}</style></defs><path class="cls-1" d="m200.16,33.12h-31.9V4.65h100.52v28.48h-31.9v80.45h-36.72V33.12Z"/><path class="cls-1" d="m277.97,70.94c0-25.83,20.7-44.04,49.48-44.04s49.48,18.21,49.48,44.04-20.54,44.19-49.48,44.19-49.48-18.36-49.48-44.19Zm63.33,0c0-11.05-6.07-16.65-13.85-16.65s-13.85,5.6-13.85,16.65,6.07,16.81,13.85,16.81,13.85-5.76,13.85-16.81Z"/><path class="cls-1" d="m494.89,28.46v85.12h-33.46v-8.09c-6.38,6.54-14.94,9.65-24.12,9.65-20.38,0-35.79-11.98-35.79-39.68V28.46h35.17v40.93c0,12.14,4.2,16.18,11.05,16.18,6.07,0,11.98-4.51,11.98-17.12V28.46h35.17Z"/><path class="cls-1" d="m585.3,26.9v31.12c-3.11-.47-5.29-.62-7.78-.62-10.58,0-18.05,4.82-18.05,18.36v37.81h-35.17V28.46h33.46v9.18c6.22-7.16,15.72-10.74,27.54-10.74Z"/><path class="cls-1" d="m603.51,59.11c0-32.99,25.99-56.95,61.47-56.95s61.47,23.96,61.47,56.95-25.99,56.95-61.47,56.95-61.47-23.96-61.47-56.95Zm85.9,0c0-16.96-10.89-27.23-24.43-27.23s-24.43,10.27-24.43,27.23,10.89,27.23,24.43,27.23,24.43-10.27,24.43-27.23Z"/><path class="cls-1" d="m846.58,65.02v48.55h-35.17v-42.48c0-10.58-4.05-14.63-10.43-14.63-7.16,0-13.23,4.51-13.23,17.12v39.99h-35.17V28.46h33.46v8.4c6.69-6.69,15.72-9.96,25.68-9.96,19.61,0,34.86,11.36,34.86,38.12Z"/><path class="cls-1" d="m179.63,180.48v-22.82h-9.04v-6.6h26.35v6.6h-8.99v22.82h-8.32Z"/><path class="cls-1" d="m207.54,180.48l-8.11-22.78h7.56l6.43,19.04h-3.61l6.68-19.04h6.81l6.43,19.04h-3.53l6.64-19.04h7.02l-8.11,22.78h-7.73l-5.46-15.76h2.35l-5.63,15.76h-7.73Z"/><path class="cls-1" d="m256.83,180.86c-2.49,0-4.71-.5-6.64-1.51-1.93-1.01-3.45-2.4-4.56-4.18-1.11-1.78-1.66-3.82-1.66-6.12s.55-4.33,1.66-6.09c1.11-1.76,2.63-3.14,4.56-4.14,1.93-.99,4.15-1.49,6.64-1.49s4.71.5,6.66,1.49c1.95,1,3.47,2.38,4.56,4.14,1.09,1.77,1.64,3.8,1.64,6.09s-.55,4.34-1.64,6.12-2.61,3.17-4.56,4.18c-1.95,1.01-4.17,1.51-6.66,1.51Zm0-6.35c.92,0,1.74-.21,2.46-.63.71-.42,1.28-1.04,1.7-1.87.42-.83.63-1.81.63-2.96s-.21-2.12-.63-2.92c-.42-.8-.99-1.41-1.7-1.83-.71-.42-1.53-.63-2.46-.63s-1.7.21-2.42.63c-.71.42-1.29,1.03-1.72,1.83-.44.8-.65,1.77-.65,2.92s.22,2.14.65,2.96c.43.83,1.01,1.45,1.72,1.87.71.42,1.52.63,2.42.63Zm-4.2-19.54l5.63-6.39h7.99l-7.9,6.39h-5.72Z"/><path class="cls-1" d="m276.17,189.01c-1.07,0-2.08-.11-3.05-.32-.97-.21-1.8-.5-2.5-.86l2.02-5.67c.73.45,1.55.67,2.48.67.7,0,1.27-.24,1.7-.71.43-.48.65-1.23.65-2.27v-22.15h7.99v22.19c0,2.77-.81,4.99-2.44,6.64-1.63,1.65-3.91,2.48-6.85,2.48Zm5.3-33.83c-1.46,0-2.63-.41-3.53-1.22-.9-.81-1.34-1.82-1.34-3.03s.45-2.21,1.34-3.03c.9-.81,2.07-1.22,3.53-1.22s2.63.39,3.53,1.16c.9.77,1.34,1.76,1.34,2.96s-.44,2.3-1.32,3.13c-.88.83-2.07,1.24-3.55,1.24Z"/><path class="cls-1" d="m321.73,180.86c-2.49,0-4.71-.5-6.64-1.51-1.93-1.01-3.45-2.4-4.56-4.18-1.11-1.78-1.66-3.82-1.66-6.12s.55-4.33,1.66-6.09c1.11-1.76,2.63-3.14,4.56-4.14,1.93-.99,4.15-1.49,6.64-1.49s4.71.5,6.66,1.49c1.95,1,3.47,2.38,4.56,4.14,1.09,1.77,1.64,3.8,1.64,6.09s-.55,4.34-1.64,6.12-2.61,3.17-4.56,4.18c-1.95,1.01-4.17,1.51-6.66,1.51Zm0-6.35c.92,0,1.74-.21,2.46-.63.71-.42,1.28-1.04,1.7-1.87.42-.83.63-1.81.63-2.96s-.21-2.12-.63-2.92c-.42-.8-.99-1.41-1.7-1.83-.71-.42-1.53-.63-2.46-.63s-1.7.21-2.42.63c-.71.42-1.29,1.03-1.72,1.83-.44.8-.65,1.77-.65,2.92s.22,2.14.65,2.96c.43.83,1.01,1.45,1.72,1.87.71.42,1.52.63,2.42.63Z"/><path class="cls-1" d="m350.3,180.86c-1.93,0-3.82-.22-5.65-.67-1.84-.45-3.31-1.01-4.43-1.68l2.4-5.46c1.06.65,2.31,1.16,3.74,1.53,1.43.38,2.83.57,4.2.57s2.28-.14,2.79-.42c.52-.28.78-.66.78-1.13,0-.45-.25-.78-.74-.99-.49-.21-1.13-.37-1.93-.48-.8-.11-1.67-.24-2.63-.38-.95-.14-1.91-.33-2.88-.57-.97-.24-1.85-.6-2.65-1.09-.8-.49-1.44-1.16-1.91-2s-.71-1.91-.71-3.19c0-1.46.43-2.75,1.28-3.89.85-1.13,2.11-2.03,3.76-2.69,1.65-.66,3.67-.99,6.05-.99,1.6,0,3.22.16,4.85.48,1.64.32,3.02.81,4.14,1.45l-2.4,5.42c-1.12-.64-2.24-1.09-3.36-1.32-1.12-.24-2.19-.36-3.19-.36-1.34,0-2.29.15-2.84.46s-.82.69-.82,1.13.24.79.71,1.03c.48.24,1.11.42,1.91.55.8.13,1.67.25,2.63.38.95.13,1.91.32,2.88.57s1.85.62,2.65,1.11c.8.49,1.44,1.15,1.91,1.97.48.83.71,1.88.71,3.17,0,1.4-.43,2.66-1.28,3.78-.85,1.12-2.12,2.02-3.78,2.69-1.67.67-3.73,1.01-6.2,1.01Z"/><path class="cls-1" d="m380.19,180.86c-2.49,0-4.71-.5-6.64-1.51-1.93-1.01-3.45-2.4-4.56-4.18-1.11-1.78-1.66-3.82-1.66-6.12s.55-4.33,1.66-6.09c1.11-1.76,2.63-3.14,4.56-4.14,1.93-.99,4.15-1.49,6.64-1.49s4.71.5,6.66,1.49c1.95,1,3.47,2.38,4.56,4.14,1.09,1.77,1.64,3.8,1.64,6.09s-.55,4.34-1.64,6.12-2.61,3.17-4.56,4.18c-1.95,1.01-4.17,1.51-6.66,1.51Zm0-6.35c.92,0,1.74-.21,2.46-.63.71-.42,1.28-1.04,1.7-1.87.42-.83.63-1.81.63-2.96s-.21-2.12-.63-2.92c-.42-.8-.99-1.41-1.7-1.83-.71-.42-1.53-.63-2.46-.63s-1.7.21-2.42.63c-.71.42-1.29,1.03-1.72,1.83-.44.8-.65,1.77-.65,2.92s.22,2.14.65,2.96c.43.83,1.01,1.45,1.72,1.87.71.42,1.52.63,2.42.63Z"/><path class="cls-1" d="m400.49,180.48v-31.19h7.99v12.23l-.42,7.52.04,7.52v3.91h-7.61Zm14.33.38c-2.05,0-3.75-.42-5.11-1.26-1.36-.84-2.37-2.13-3.05-3.87-.67-1.74-1.01-3.96-1.01-6.68s.36-4.86,1.07-6.6c.71-1.74,1.76-3.03,3.13-3.87,1.37-.84,3.03-1.26,4.96-1.26,2.07,0,3.96.48,5.65,1.43,1.69.95,3.04,2.3,4.03,4.06s1.49,3.83,1.49,6.24-.5,4.53-1.49,6.28-2.34,3.11-4.03,4.08c-1.7.97-3.58,1.45-5.65,1.45Zm-1.68-6.35c.9,0,1.7-.21,2.42-.63.71-.42,1.29-1.04,1.72-1.87.43-.83.65-1.81.65-2.96s-.22-2.12-.65-2.92c-.43-.8-1.01-1.41-1.72-1.83-.71-.42-1.52-.63-2.42-.63s-1.7.21-2.42.63c-.71.42-1.29,1.03-1.72,1.83-.44.8-.65,1.77-.65,2.92s.22,2.14.65,2.96c.43.83,1.01,1.45,1.72,1.87s1.52.63,2.42.63Z"/><path class="cls-1" d="m437.43,155.18c-1.46,0-2.63-.41-3.53-1.22-.9-.81-1.34-1.82-1.34-3.03s.45-2.21,1.34-3.03c.9-.81,2.07-1.22,3.53-1.22s2.63.39,3.53,1.16c.9.77,1.34,1.76,1.34,2.96s-.44,2.3-1.32,3.13c-.88.83-2.07,1.24-3.55,1.24Zm-3.99,25.3v-22.78h7.98v22.78h-7.98Z"/><path class="cls-1" d="m458.61,180.86c-1.93,0-3.82-.22-5.65-.67-1.83-.45-3.31-1.01-4.43-1.68l2.4-5.46c1.06.65,2.31,1.16,3.74,1.53,1.43.38,2.83.57,4.2.57s2.28-.14,2.79-.42c.52-.28.78-.66.78-1.13,0-.45-.25-.78-.74-.99-.49-.21-1.13-.37-1.93-.48s-1.67-.24-2.63-.38c-.95-.14-1.91-.33-2.88-.57-.97-.24-1.85-.6-2.65-1.09-.8-.49-1.44-1.16-1.91-2-.48-.84-.71-1.91-.71-3.19,0-1.46.43-2.75,1.28-3.89.85-1.13,2.11-2.03,3.76-2.69,1.65-.66,3.67-.99,6.05-.99,1.6,0,3.21.16,4.85.48,1.64.32,3.02.81,4.14,1.45l-2.4,5.42c-1.12-.64-2.24-1.09-3.36-1.32-1.12-.24-2.19-.36-3.19-.36-1.34,0-2.29.15-2.84.46-.55.31-.82.69-.82,1.13s.24.79.71,1.03c.48.24,1.11.42,1.91.55.8.13,1.67.25,2.63.38s1.91.32,2.88.57c.97.25,1.85.62,2.65,1.11s1.44,1.15,1.91,1.97c.48.83.71,1.88.71,3.17,0,1.4-.43,2.66-1.28,3.78-.85,1.12-2.12,2.02-3.78,2.69-1.67.67-3.73,1.01-6.2,1.01Z"/><path class="cls-1" d="m474.67,164.51v-5.97h16.52v5.97h-16.52Zm12.57,16.35c-2.91,0-5.18-.72-6.81-2.16-1.62-1.44-2.44-3.62-2.44-6.54v-19.54h7.99v19.46c0,.81.22,1.45.67,1.91.45.46,1.02.69,1.72.69.95,0,1.77-.24,2.44-.71l1.97,5.59c-.67.45-1.5.78-2.48.99-.98.21-2,.31-3.07.31Z"/><path class="cls-1" d="m506.19,181.45l-10.04-23.75h8.2l7.4,18.41-5.55,5.34Zm-3.11,7.57c-1.21,0-2.42-.19-3.64-.57-1.22-.38-2.21-.88-2.96-1.49l2.77-5.59c.48.42,1.03.75,1.66.99.63.24,1.25.36,1.87.36.87,0,1.55-.2,2.06-.59.5-.39.94-1.01,1.3-1.85l1.05-2.65.63-.8,7.73-19.12h7.61l-9.83,23.7c-.79,1.96-1.69,3.5-2.71,4.6-1.02,1.11-2.16,1.88-3.4,2.33-1.25.45-2.63.67-4.14.67Z"/><path class="cls-1" d="m544.94,188.63v-30.93h7.61v3.87l-.04,7.52.42,7.57v11.98h-7.99Zm14.33-7.78c-1.93,0-3.59-.43-4.96-1.28-1.37-.85-2.42-2.14-3.13-3.87-.71-1.72-1.07-3.93-1.07-6.62s.34-4.94,1.01-6.66c.67-1.72,1.69-3,3.05-3.84,1.36-.84,3.06-1.26,5.11-1.26s3.96.48,5.65,1.45c1.69.97,3.04,2.33,4.03,4.08.99,1.75,1.49,3.83,1.49,6.24s-.5,4.5-1.49,6.26c-1,1.77-2.34,3.12-4.03,4.08-1.7.95-3.58,1.43-5.65,1.43Zm-1.68-6.35c.9,0,1.7-.21,2.42-.63.71-.42,1.29-1.04,1.72-1.85.43-.81.65-1.79.65-2.94s-.22-2.13-.65-2.94c-.43-.81-1.01-1.43-1.72-1.85-.71-.42-1.52-.63-2.42-.63s-1.7.21-2.42.63c-.71.42-1.29,1.04-1.72,1.85-.43.81-.65,1.79-.65,2.94s.22,2.13.65,2.94c.43.81,1.01,1.43,1.72,1.85s1.52.63,2.42.63Z"/><path class="cls-1" d="m577.89,180.48v-22.78h7.61v6.64l-1.13-1.89c.67-1.71,1.77-2.99,3.28-3.85,1.51-.85,3.35-1.28,5.51-1.28v7.19c-.36-.06-.68-.09-.95-.11-.27-.01-.55-.02-.86-.02-1.62,0-2.94.44-3.95,1.32-1.01.88-1.51,2.32-1.51,4.31v10.46h-7.99Z"/><path class="cls-1" d="m599.07,180.48v-4.71l12.78-14.71,1.34,2.56h-13.83v-5.93h20.3v4.67l-12.82,14.75-1.34-2.61h14.58v5.97h-21.01Z"/><path class="cls-1" d="m639.04,180.86c-2.69,0-5.04-.51-7.04-1.53-2-1.02-3.56-2.42-4.67-4.2-1.11-1.78-1.66-3.8-1.66-6.07s.54-4.29,1.62-6.07c1.08-1.78,2.57-3.17,4.48-4.16,1.91-.99,4.05-1.49,6.43-1.49,2.24,0,4.29.46,6.14,1.37,1.85.91,3.32,2.25,4.41,4.01,1.09,1.77,1.64,3.91,1.64,6.43,0,.28-.01.6-.04.97-.03.36-.06.7-.08,1.01h-18.03v-4.2h13.79l-3.03,1.18c.03-1.04-.16-1.93-.57-2.69-.41-.76-.97-1.35-1.68-1.77s-1.55-.63-2.5-.63-1.79.21-2.5.63c-.71.42-1.27,1.02-1.66,1.79-.39.77-.59,1.67-.59,2.71v1.22c0,1.12.23,2.09.69,2.9.46.81,1.13,1.44,2,1.87s1.91.65,3.11.65c1.12,0,2.08-.16,2.88-.48s1.59-.82,2.38-1.49l4.2,4.37c-1.09,1.21-2.44,2.12-4.04,2.75s-3.49.95-5.67.95Z"/><path class="cls-1" d="m662.83,180.48l-8.11-22.78h7.57l6.43,19.04h-3.61l6.68-19.04h6.81l6.43,19.04h-3.53l6.64-19.04h7.02l-8.11,22.78h-7.73l-5.46-15.76h2.35l-5.63,15.76h-7.73Z"/><path class="cls-1" d="m712.13,180.86c-2.49,0-4.71-.5-6.64-1.51-1.93-1.01-3.45-2.4-4.56-4.18-1.11-1.78-1.66-3.82-1.66-6.12s.55-4.33,1.66-6.09c1.11-1.76,2.63-3.14,4.56-4.14,1.93-.99,4.15-1.49,6.64-1.49s4.71.5,6.66,1.49c1.95,1,3.47,2.38,4.56,4.14,1.09,1.77,1.64,3.8,1.64,6.09s-.55,4.34-1.64,6.12-2.61,3.17-4.56,4.18c-1.95,1.01-4.17,1.51-6.66,1.51Zm0-6.35c.92,0,1.75-.21,2.46-.63.71-.42,1.28-1.04,1.7-1.87.42-.83.63-1.81.63-2.96s-.21-2.12-.63-2.92c-.42-.8-.99-1.41-1.7-1.83-.71-.42-1.53-.63-2.46-.63s-1.7.21-2.42.63c-.71.42-1.29,1.03-1.72,1.83-.43.8-.65,1.77-.65,2.92s.22,2.14.65,2.96c.43.83,1.01,1.45,1.72,1.87.71.42,1.52.63,2.42.63Z"/><path class="cls-1" d="m742.34,180.86c-2.07,0-3.96-.48-5.65-1.45-1.7-.97-3.05-2.33-4.06-4.08-1.01-1.75-1.51-3.85-1.51-6.28s.5-4.49,1.51-6.24c1.01-1.75,2.36-3.1,4.06-4.06,1.69-.95,3.58-1.43,5.65-1.43,1.96,0,3.62.42,4.98,1.26,1.36.84,2.39,2.13,3.09,3.87s1.05,3.94,1.05,6.6-.34,4.95-1.01,6.68c-.67,1.74-1.68,3.03-3.03,3.87-1.35.84-3.04,1.26-5.09,1.26Zm1.68-6.35c.9,0,1.7-.21,2.42-.63.71-.42,1.28-1.04,1.7-1.87.42-.83.63-1.81.63-2.96s-.21-2.12-.63-2.92c-.42-.8-.99-1.41-1.7-1.83-.71-.42-1.52-.63-2.42-.63s-1.74.21-2.46.63c-.71.42-1.28,1.03-1.7,1.83-.42.8-.63,1.77-.63,2.92s.21,2.14.63,2.96c.42.83.99,1.45,1.7,1.87s1.53.63,2.46.63Zm5,5.97v-3.91l.04-7.52-.42-7.52v-12.23h7.99v31.19h-7.61Z"/><path class="cls-1" d="m780.34,157.32c1.77,0,3.36.36,4.79,1.07,1.43.71,2.56,1.81,3.38,3.3.83,1.49,1.24,3.4,1.24,5.76v13.03h-7.99v-11.73c0-1.62-.33-2.81-.99-3.55s-1.58-1.11-2.75-1.11c-.84,0-1.61.19-2.31.57-.7.38-1.25.96-1.64,1.74s-.59,1.81-.59,3.07v11.01h-7.99v-22.78h7.61v6.47l-1.47-1.89c.87-1.65,2.06-2.89,3.57-3.72,1.51-.83,3.22-1.24,5.13-1.24Z"/><path class="cls-1" d="m802.49,155.18c-1.46,0-2.63-.41-3.53-1.22-.9-.81-1.35-1.82-1.35-3.03s.45-2.21,1.35-3.03c.9-.81,2.07-1.22,3.53-1.22s2.63.39,3.53,1.16c.9.77,1.34,1.76,1.34,2.96s-.44,2.3-1.32,3.13c-.88.83-2.07,1.24-3.55,1.24Zm-3.99,25.3v-22.78h7.99v22.78h-7.99Z"/><path class="cls-1" d="m815.39,180.48v-31.19h7.99v31.19h-7.99Zm6.64-4.2l.21-9.54,9.29-9.04h9.46l-10.3,10.63-4.08,3.28-4.58,4.67Zm10.09,4.2l-6.98-8.74,4.96-6.14,11.68,14.88h-9.67Z"/><path class="cls-1" d="m125.88,112.93c-19.19,41.2-57.62,69.96-57.62,69.96,0,0-68.26-49.66-68.26-114.61C0,30.57,30.56,0,68.26,0c19.9,0,37.81,8.52,50.3,22.11h-58.92c-2.78,0-5.04,2.26-5.04,5.04v24.82s0,9.95-4.92,9.95c-1.98,0-7.07-3.93-8-4.66h-.01s-.07-.06-.11-.1h-.01c-2.38-1.94-5.43-3.09-8.74-3.09-7.71,0-13.96,6.25-13.96,13.96s6.25,13.95,13.96,13.95c3.32,0,6.36-1.16,8.74-3.08h.01l.11-.11c.15-.11.3-.24.43-.36,1.53-1.27,5.78-4.65,7.58-4.63,4.92.02,4.92,11.42,4.92,11.42v22.67c0,2.78,2.26,5.04,5.04,5.04h22.68s11.39,0,11.42-4.92c.01-1.78-3.25-5.91-4.56-7.5-.34-.41-.55-.65-.55-.65-1.93-2.38-3.08-5.43-3.08-8.73,0-7.71,6.25-13.96,13.95-13.96s13.96,6.25,13.96,13.96c0,3.3-1.16,6.35-3.08,8.73,0,0-.07.09-.21.26-.91,1.17-4.56,5.96-4.56,7.89,0,4.92,9.95,4.92,9.95,4.92h10.32Z"/><path class="cls-1" d="m41.54,78.89h.01-.01s0,0,0,0Z"/><path class="cls-1" d="m42.1,78.43c-.2.16-.34.29-.43.36.15-.11.3-.24.43-.36Z"/></svg>