<svg width="192" height="39" viewBox="0 0 192 39" fill="none" xmlns="http://www.w3.org/2000/svg">
<path d="M17.919 3.53416C18.6637 2.0893 20.7296 2.0893 21.4744 3.53416L24.9818 10.3385C25.2721 10.9017 25.8121 11.294 26.4374 11.3961L33.9926 12.6292C35.5969 12.891 36.2353 14.8558 35.0913 16.0106L29.7038 21.449C29.2579 21.8991 29.0516 22.5339 29.1478 23.1601L30.3098 30.7266C30.5565 32.3333 28.8852 33.5476 27.4333 32.8164L20.5963 29.3732C20.0304 29.0882 19.363 29.0882 18.7971 29.3732L11.96 32.8164C10.5082 33.5476 8.83686 32.3333 9.08359 30.7266L10.2455 23.1601C10.3417 22.5339 10.1355 21.8991 9.68957 21.449L4.30207 16.0106C3.15807 14.8558 3.79647 12.891 5.40076 12.6292L12.956 11.3961C13.5813 11.294 14.1212 10.9017 14.4115 10.3385L17.919 3.53416Z" fill="#26910B"/>
<path d="M56.0347 3.53416C56.7795 2.0893 58.8453 2.0893 59.5901 3.53416L63.0975 10.3385C63.3878 10.9017 63.9278 11.294 64.5531 11.3961L72.1083 12.6292C73.7126 12.891 74.351 14.8558 73.207 16.0106L67.8195 21.449C67.3736 21.8991 67.1674 22.5339 67.2635 23.1601L68.4255 30.7266C68.6722 32.3333 67.0009 33.5476 65.5491 32.8164L58.712 29.3732C58.1461 29.0882 57.4787 29.0882 56.9128 29.3732L50.0757 32.8164C48.6239 33.5476 46.9526 32.3333 47.1993 30.7266L48.3613 23.1601C48.4574 22.5339 48.2512 21.8991 47.8053 21.449L42.4178 16.0106C41.2738 14.8558 41.9122 12.891 43.5165 12.6292L51.0717 11.3961C51.697 11.294 52.237 10.9017 52.5273 10.3385L56.0347 3.53416Z" fill="#26910B"/>
<path d="M94.1514 3.53416C94.8962 2.0893 96.962 2.0893 97.7068 3.53416L101.214 10.3385C101.505 10.9017 102.045 11.294 102.67 11.3961L110.225 12.6292C111.829 12.891 112.468 14.8558 111.324 16.0106L105.936 21.449C105.49 21.8991 105.284 22.5339 105.38 23.1601L106.542 30.7266C106.789 32.3333 105.118 33.5476 103.666 32.8164L96.8287 29.3732C96.2628 29.0882 95.5954 29.0882 95.0295 29.3732L88.1924 32.8164C86.7406 33.5476 85.0693 32.3333 85.316 30.7266L86.478 23.1601C86.5741 22.5339 86.3679 21.8991 85.922 21.449L80.5345 16.0106C79.3905 14.8558 80.0289 12.891 81.6332 12.6292L89.1884 11.3961C89.8137 11.294 90.3537 10.9017 90.644 10.3385L94.1514 3.53416Z" fill="#26910B"/>
<path d="M132.267 3.53416C133.012 2.0893 135.078 2.0893 135.823 3.53416L139.33 10.3385C139.62 10.9017 140.16 11.294 140.786 11.3961L148.341 12.6292C149.945 12.891 150.583 14.8558 149.439 16.0106L144.052 21.449C143.606 21.8991 143.4 22.5339 143.496 23.1601L144.658 30.7266C144.905 32.3333 143.233 33.5476 141.781 32.8164L134.944 29.3732C134.379 29.0882 133.711 29.0882 133.145 29.3732L126.308 32.8164C124.856 33.5476 123.185 32.3333 123.432 30.7266L124.594 23.1601C124.69 22.5339 124.484 21.8991 124.038 21.449L118.65 16.0106C117.506 14.8558 118.145 12.891 119.749 12.6292L127.304 11.3961C127.929 11.294 128.469 10.9017 128.76 10.3385L132.267 3.53416Z" fill="#26910B"/>
<path d="M173.05 3.99234L176.558 10.7967C176.993 11.6415 177.803 12.2299 178.741 12.383L186.296 13.6161C187.099 13.747 187.418 14.7294 186.846 15.3068L181.458 20.7452C180.789 21.4204 180.48 22.3726 180.624 23.3119L181.786 30.8784C181.91 31.6817 181.074 32.2889 180.348 31.9233L173.511 28.4801C172.662 28.0526 171.661 28.0526 170.812 28.4801L163.975 31.9233C163.249 32.2889 162.413 31.6817 162.537 30.8784L163.699 23.3119C163.843 22.3726 163.534 21.4204 162.865 20.7452L157.477 15.3068C156.905 14.7294 157.225 13.747 158.027 13.6161L165.582 12.383C166.52 12.2299 167.33 11.6415 167.765 10.7967L171.273 3.99234C171.645 3.26991 172.678 3.26991 173.05 3.99234Z" fill="#26910B" stroke="#26910B" stroke-width="2"/>
</svg>
