<svg width="20" height="19" viewBox="0 0 20 19" fill="none" xmlns="http://www.w3.org/2000/svg">
<g clip-path="url(#clip0_84_209)">
<path d="M19.8729 9.03111C19.7884 8.29331 19.1489 7.75985 18.436 7.75985H13.7284C13.4729 7.75985 13.2937 7.49664 13.3787 7.24601C13.7371 6.18914 14.0293 5.09654 14.1312 3.97676C14.2264 2.93197 14.1525 1.54445 13.1421 0.983299C12.7045 0.740219 12.0047 0.587225 11.5342 0.797089C11.101 0.990848 11.2488 1.68134 11.2488 2.06181C11.2488 2.63755 11.0334 3.18461 10.8672 3.72512C10.3456 4.48506 9.88292 5.28627 9.35937 6.0442C8.90536 6.70096 8.35766 7.58874 7.54529 7.77142C7.16035 7.85799 6.8667 8.18461 6.8667 8.60736V17.8459C6.8667 18.3165 7.2328 18.6979 7.68439 18.6979H15.9989C16.7152 18.6979 17.3537 18.1579 17.4334 17.4161C17.4966 16.8318 17.2252 16.3094 16.7949 16.0251C16.7915 16.0231 16.7929 16.018 16.7968 16.018H16.8127C17.5285 16.018 18.1665 15.478 18.2467 14.7372C18.31 14.1529 18.0385 13.63 17.6082 13.3457C17.6048 13.3436 17.6063 13.3386 17.6101 13.3386H17.6261C18.3438 13.3386 18.9828 12.7956 19.0605 12.0522C19.1219 11.4654 18.8461 10.941 18.4104 10.6587H18.4916C19.316 10.6587 19.9729 9.91133 19.8724 9.03111H19.8729Z" fill="#26910B"/>
<path d="M5.30064 7.89674H1.58217C1.19593 7.89674 0.882812 8.22301 0.882812 8.62548V17.9692C0.882812 18.3717 1.19593 18.698 1.58217 18.698H5.30064C5.68689 18.698 6 18.3717 6 17.9692V8.62548C6 8.22301 5.68689 7.89674 5.30064 7.89674Z" fill="#26910B"/>
</g>
<defs>
<clipPath id="clip0_84_209">
<rect width="19" height="18" fill="white" transform="translate(0.882812 0.697952)"/>
</clipPath>
</defs>
</svg>
